<svg viewBox="0 0 76.94 24.81" xmlns="http://www.w3.org/2000/svg" xmlns:xlink="http://www.w3.org/1999/xlink" id="Lager_1" overflow="hidden"><style>
.MsftOfcThm_Text1_Fill_v2 {
 fill:#FFFFFF; 
}
</style>
<defs></defs><path d="M0 0 1.34 1.8 1.34 21.66 0 23.46 16.66 23.46 16.66 22.94 17.25 16.17 12.39 22.74 6.75 22.73 6.75 12.06 9.57 12.06 12.12 15.88 12.12 7.58 9.57 11.37 6.75 11.36 6.75 0.74 11.64 0.76 16.51 6.57 15.81 0.51 15.81 0 0 0Z" class="MsftOfcThm_Text1_Fill_v2" fill="#FFFFFF"/><path d="M36.14 0 38.76 1.85 33.92 15.92 28.9 1.85 31.42 0 20.77 0 22.64 1.87 31.75 24.81 39.68 1.87 42.13 0 36.14 0Z" class="MsftOfcThm_Text1_Fill_v2" fill="#FFFFFF"/><path d="M46.63 0 47.97 1.67 47.97 21.79 46.63 23.46 62.88 23.46 62.88 22.94 63.6 15.34 58.56 22.6 53.39 22.57 53.39 1.67 54.93 0 46.63 0Z" class="MsftOfcThm_Text1_Fill_v2" fill="#FFFFFF"/><path d="M68.85 0 70.18 1.67 70.18 21.79 68.85 23.46 76.94 23.46 75.6 21.79 75.6 1.67 76.94 0 68.85 0Z" class="MsftOfcThm_Text1_Fill_v2" fill="#FFFFFF"/></svg>